<svg width="155" height="29" viewBox="0 0 155 29" fill="none" xmlns="http://www.w3.org/2000/svg">
<path id="Vector" d="M31.3225 8.3438C25.6734 8.3438 21.3021 12.5806 21.3021 18.2969C21.3021 24.0132 25.6062 28.25 31.3225 28.25C37.0388 28.25 41.41 23.946 41.41 18.2969C41.41 12.6478 37.106 8.3438 31.3225 8.3438ZM31.3897 24.0804C28.1616 24.0804 25.8751 21.5922 25.8751 18.2297C25.8751 14.8671 28.1616 12.3788 31.3897 12.3788C34.6177 12.3788 36.9715 14.8671 36.9715 18.2297C36.9715 21.5922 34.5505 24.0804 31.3897 24.0804ZM42.6205 12.6478H45.3778V27.8465H49.8836V8.68004H42.6205V12.6478ZM10.0713 12.4461C12.425 12.4461 14.3081 13.8583 14.9805 16.0104H19.6881C18.8139 11.4373 15.0478 8.27656 10.0713 8.27656C4.48946 8.3438 0.118164 12.5806 0.118164 18.2969C0.118164 24.0132 4.4222 28.25 10.1385 28.25C14.9805 28.25 18.8139 25.1564 19.6881 20.5162H14.9805C14.3081 22.6682 12.425 24.1477 10.1385 24.1477C6.91047 24.1477 4.62395 21.6594 4.62395 18.2969C4.62395 14.9343 6.84323 12.4461 10.0713 12.4461ZM127.424 16.4138L124.128 15.9431C122.581 15.7414 121.438 15.2034 121.438 13.9929C121.438 12.6478 122.918 11.9753 124.868 11.9753C127.02 11.9753 128.432 12.9168 128.702 14.3963H133.005C132.535 10.5631 129.576 8.27656 125.003 8.27656C120.295 8.27656 117.134 10.6975 117.134 14.1273C117.134 17.3554 119.152 19.3057 123.321 19.8437L126.617 20.3144C128.231 20.5162 129.105 21.1887 129.105 22.3319C129.105 23.8787 127.558 24.484 125.406 24.484C122.783 24.484 121.304 23.4079 121.035 21.7939H116.664C117.067 25.56 120.026 28.1827 125.339 28.1827C130.181 28.1827 133.476 25.9635 133.476 22.1302C133.476 18.7677 131.122 17.0192 127.424 16.4138ZM47.6644 0.811737C46.0503 0.811737 44.7726 2.02225 44.7726 3.63626C44.7726 5.25028 45.9831 6.46079 47.6644 6.46079C49.2784 6.46079 50.5561 5.25028 50.5561 3.63626C50.5561 2.02225 49.2784 0.811737 47.6644 0.811737ZM113.166 15.2706C113.166 11.1011 110.611 8.3438 105.298 8.3438C100.254 8.3438 97.4296 10.8993 96.8243 14.7999H101.263C101.465 13.2531 102.676 12.0426 105.231 12.0426C107.518 12.0426 108.593 13.0514 108.593 14.2619C108.593 15.8759 106.576 16.2794 104.02 16.5484C100.59 16.9519 96.3537 18.0951 96.3537 22.5337C96.3537 25.9635 98.9091 28.1827 103.012 28.1827C106.24 28.1827 108.19 26.8377 109.199 24.753C109.333 26.6359 110.745 27.8465 112.763 27.8465H115.386V23.8787H113.166V15.2706ZM108.728 20.0454C108.728 22.6009 106.509 24.484 103.752 24.484C102.07 24.484 100.658 23.8114 100.658 22.2647C100.658 20.3816 102.944 19.8437 105.029 19.6419C107.047 19.4401 108.123 19.0367 108.728 18.1624V20.0454ZM85.0559 8.3438C82.5676 8.3438 80.4829 9.35259 79.0034 11.1011V0.609985H74.5644V27.8465H78.9357V25.3582C80.4151 27.174 82.5676 28.25 85.0559 28.25C90.436 28.25 94.4708 24.0132 94.4708 18.2969C94.4708 12.5806 90.3683 8.3438 85.0559 8.3438ZM84.3835 24.0804C81.1552 24.0804 78.8687 21.5922 78.8687 18.2297C78.8687 14.8671 81.2222 12.3788 84.4506 12.3788C87.6782 12.3788 89.9648 14.8671 89.9648 18.2297C89.9648 21.6594 87.6112 24.0804 84.3835 24.0804ZM63.8718 8.3438C60.98 8.3438 59.097 9.55429 57.9537 11.1683V8.68004H53.5152V27.8465H57.9537V17.4226C57.9537 14.4636 59.8367 12.4461 62.594 12.4461C65.1495 12.4461 66.7635 14.2619 66.7635 16.8846V27.8465H71.202V16.5484C71.202 11.7063 68.7138 8.3438 63.8718 8.3438ZM154.727 17.6916C154.727 12.1771 150.693 8.3438 145.312 8.3438C139.596 8.3438 135.359 12.6478 135.359 18.2969C135.359 24.2822 139.865 28.25 145.38 28.25C150.02 28.25 153.651 25.4927 154.593 21.5922H149.953C149.28 23.2735 147.666 24.2822 145.447 24.2822C142.555 24.2822 140.403 22.5337 139.932 19.3729H154.727V17.6916ZM140.201 16.2121C140.941 13.5221 142.891 12.2444 145.245 12.2444C147.801 12.2444 149.684 13.6566 150.154 16.2121H140.201Z" fill="#0052FF"/>
</svg>
