<svg width="44" height="42" viewBox="0 0 44 42" fill="none" xmlns="http://www.w3.org/2000/svg">
<path id="Vector" d="M3.125 37.98H9.375V34.855H3.125V3.60498H14.9902L21.2402 9.85498H40.625V22.355H43.75V9.85498C43.75 9.4318 43.6686 9.03304 43.5059 8.65869C43.3431 8.28434 43.1152 7.95068 42.8223 7.65771C42.5293 7.36475 42.1956 7.13688 41.8213 6.97412C41.4469 6.81136 41.0482 6.72998 40.625 6.72998H22.5098L17.1875 1.40771C17.0573 1.24495 16.9027 1.10661 16.7236 0.992676C16.5446 0.878742 16.3574 0.789227 16.1621 0.724121C15.9668 0.626465 15.7715 0.561359 15.5762 0.528809C15.3809 0.496258 15.1855 0.47998 14.9902 0.47998H3.125C2.70182 0.47998 2.30306 0.561359 1.92871 0.724121C1.55436 0.886883 1.2207 1.11475 0.927734 1.40771C0.634766 1.70068 0.406901 2.03434 0.244141 2.40869C0.0813802 2.78304 0 3.1818 0 3.60498V34.855C0 35.2782 0.0813802 35.6769 0.244141 36.0513C0.406901 36.4256 0.634766 36.7593 0.927734 37.0522C1.2207 37.3452 1.55436 37.5731 1.92871 37.7358C2.30306 37.8986 2.70182 37.98 3.125 37.98ZM23.4375 27.0425H12.5V16.105H23.4375V27.0425ZM15.625 23.9175H20.3125V19.23H15.625V23.9175ZM23.4375 41.105H12.5V30.1675H23.4375V41.105ZM15.625 37.98H20.3125V33.2925H15.625V37.98ZM26.5625 27.0425H37.5V16.105H26.5625V27.0425ZM34.375 23.9175H29.6875V19.23H34.375V23.9175ZM37.5 41.105H26.5625V30.1675H37.5V41.105ZM29.6875 37.98H34.375V33.2925H29.6875V37.98Z" fill="url(#paint0_linear_1_964)"/>
<defs>
<linearGradient id="paint0_linear_1_964" x1="4.05265e-07" y1="0.47998" x2="48.9653" y2="33.3316" gradientUnits="userSpaceOnUse">
<stop stop-color="#2600FC"/>
<stop offset="1" stop-color="#FF00EA"/>
</linearGradient>
</defs>
</svg>
