<svg width="45" height="45" viewBox="0 0 45 45" fill="none" xmlns="http://www.w3.org/2000/svg">
<path id="Vector" d="M13.3418 11.7808C12.821 12.1388 12.2676 12.4074 11.6816 12.5864C11.0957 12.7655 10.4935 12.855 9.875 12.855C9.0612 12.855 8.26367 12.7004 7.48242 12.3911C6.70117 12.0819 6.01758 11.6343 5.43164 11.0483C4.8457 10.4624 4.39811 9.77881 4.08887 8.99756C3.77962 8.21631 3.625 7.41878 3.625 6.60498C3.625 5.98649 3.71452 5.38428 3.89355 4.79834C4.07259 4.2124 4.34115 3.65902 4.69922 3.13818C5.02474 2.61735 5.4235 2.16162 5.89551 1.771C6.36751 1.38037 6.89648 1.07113 7.48242 0.843262C8.06836 0.582844 8.66243 0.428223 9.26465 0.379395C9.86686 0.330566 10.4772 0.35498 11.0957 0.452637C11.7142 0.582844 12.292 0.794434 12.8291 1.0874C13.3662 1.38037 13.8626 1.73845 14.3184 2.16162C14.7415 2.61735 15.0996 3.11377 15.3926 3.65088C15.6855 4.18799 15.8971 4.76579 16.0273 5.38428C16.125 6.00277 16.1494 6.61312 16.1006 7.21533C16.0518 7.81755 15.8971 8.41162 15.6367 8.99756C15.4089 9.5835 15.0996 10.1125 14.709 10.5845C14.3184 11.0565 13.8626 11.4552 13.3418 11.7808ZM11.6328 4.01709C11.3724 3.85433 11.0876 3.72412 10.7783 3.62646C10.4691 3.52881 10.168 3.47998 9.875 3.47998C9.45182 3.47998 9.05306 3.56136 8.67871 3.72412C8.30436 3.88688 7.9707 4.11475 7.67773 4.40771C7.38477 4.70068 7.1569 5.03434 6.99414 5.40869C6.83138 5.78304 6.75 6.1818 6.75 6.60498C6.75 6.89795 6.79883 7.19905 6.89648 7.5083C6.99414 7.81755 7.12435 8.10238 7.28711 8.36279C7.44987 8.59066 7.65332 8.80225 7.89746 8.99756C8.1416 9.19287 8.41016 9.35563 8.70312 9.48584C8.96354 9.61605 9.24837 9.69743 9.55762 9.72998C9.86686 9.76253 10.168 9.74626 10.4609 9.68115C10.7865 9.61605 11.0876 9.51025 11.3643 9.36377C11.641 9.21729 11.877 9.03011 12.0723 8.80225C12.3001 8.60693 12.4873 8.37093 12.6338 8.09424C12.7803 7.81755 12.8861 7.51644 12.9512 7.19092C13.0163 6.89795 13.0326 6.59684 13 6.2876C12.9674 5.97835 12.8861 5.69352 12.7559 5.43311C12.6257 5.14014 12.4629 4.87158 12.2676 4.62744C12.0723 4.3833 11.8607 4.17985 11.6328 4.01709ZM34.875 15.98V14.4175C34.875 13.8966 34.8262 13.384 34.7285 12.8794C34.6309 12.3748 34.4844 11.8947 34.2891 11.439C34.0938 10.9507 33.8496 10.495 33.5566 10.0718C33.2637 9.6486 32.9382 9.25798 32.5801 8.8999C32.222 8.54183 31.8314 8.21631 31.4082 7.92334C30.985 7.63037 30.5293 7.38623 30.041 7.19092C29.5853 6.99561 29.1051 6.84912 28.6006 6.75146C28.096 6.65381 27.5833 6.60498 27.0625 6.60498H22.375V3.47998H27.0625C28.5273 3.47998 29.9271 3.75667 31.2617 4.31006C32.5964 4.86345 33.7682 5.66097 34.7773 6.70264C35.819 7.71175 36.6165 8.88363 37.1699 10.2183C37.7233 11.5529 38 12.9526 38 14.4175V15.98H34.875ZM6.75 28.48V30.0425C6.75 31.0841 6.94531 32.0851 7.33594 33.0454C7.72656 34.0057 8.29622 34.8439 9.04492 35.5601C9.76107 36.3088 10.5993 36.8784 11.5596 37.269C12.5199 37.6597 13.5208 37.855 14.5625 37.855H19.25V40.98H14.5625C13.0977 40.98 11.6979 40.7033 10.3633 40.1499C9.02865 39.5965 7.85677 38.799 6.84766 37.7573C5.80599 36.7482 5.00846 35.5763 4.45508 34.2417C3.90169 32.9071 3.625 31.5073 3.625 30.0425V28.48H6.75ZM14.5625 14.4175H5.1875C4.56901 14.4175 3.97493 14.5396 3.40527 14.7837C2.83561 15.0278 2.32292 15.3615 1.86719 15.7847C1.44401 16.2404 1.11035 16.7531 0.866211 17.3228C0.62207 17.8924 0.5 18.4865 0.5 19.105V22.23H3.625V19.105C3.625 18.9097 3.66569 18.7144 3.74707 18.519C3.82845 18.3237 3.93424 18.1447 4.06445 17.9819C4.22721 17.8517 4.40625 17.7459 4.60156 17.6646C4.79688 17.5832 4.99219 17.5425 5.1875 17.5425H14.5625C14.7578 17.5425 14.9531 17.5832 15.1484 17.6646C15.3438 17.7459 15.5228 17.8517 15.6855 17.9819C15.8158 18.1447 15.9215 18.3237 16.0029 18.519C16.0843 18.7144 16.125 18.9097 16.125 19.105V22.23H19.25V19.105C19.25 18.4865 19.1279 17.8924 18.8838 17.3228C18.6396 16.7531 18.306 16.2404 17.8828 15.7847C17.4271 15.3615 16.9144 15.0278 16.3447 14.7837C15.7751 14.5396 15.181 14.4175 14.5625 14.4175ZM30.1875 36.2925C29.569 36.2925 28.9749 36.4146 28.4053 36.6587C27.8356 36.9028 27.3229 37.2365 26.8672 37.6597C26.444 38.1154 26.1104 38.6281 25.8662 39.1978C25.6221 39.7674 25.5 40.3615 25.5 40.98V44.105H28.625V40.98C28.625 40.7847 28.6657 40.5894 28.7471 40.394C28.8285 40.1987 28.9342 40.0197 29.0645 39.8569C29.2272 39.7267 29.4062 39.6209 29.6016 39.5396C29.7969 39.4582 29.9922 39.4175 30.1875 39.4175H39.5625C39.7578 39.4175 39.9531 39.4582 40.1484 39.5396C40.3438 39.6209 40.5228 39.7267 40.6855 39.8569C40.8158 40.0197 40.9216 40.1987 41.0029 40.394C41.0843 40.5894 41.125 40.7847 41.125 40.98V44.105H44.25V40.98C44.25 40.3615 44.1279 39.7674 43.8838 39.1978C43.6396 38.6281 43.306 38.1154 42.8828 37.6597C42.4271 37.2365 41.9144 36.9028 41.3447 36.6587C40.7751 36.4146 40.181 36.2925 39.5625 36.2925H30.1875ZM29.6992 31.9468C29.3411 31.4259 29.0726 30.8726 28.8936 30.2866C28.7145 29.7007 28.625 29.0985 28.625 28.48C28.625 27.6662 28.7796 26.8687 29.0889 26.0874C29.3981 25.3062 29.8457 24.6226 30.4316 24.0366C31.0176 23.4507 31.7012 23.0031 32.4824 22.6938C33.2637 22.3846 34.0612 22.23 34.875 22.23C35.4935 22.23 36.0957 22.3195 36.6816 22.4985C37.2676 22.6776 37.821 22.9461 38.3418 23.3042C38.8626 23.6297 39.3184 24.0285 39.709 24.5005C40.0996 24.9725 40.4089 25.5015 40.6367 26.0874C40.8971 26.6733 41.0518 27.2674 41.1006 27.8696C41.1494 28.4718 41.125 29.0822 41.0273 29.7007C40.8971 30.3192 40.6855 30.897 40.3926 31.4341C40.0996 31.9712 39.7415 32.4676 39.3184 32.9233C38.8626 33.3465 38.3662 33.7046 37.8291 33.9976C37.292 34.2905 36.7142 34.5021 36.0957 34.6323C35.4772 34.73 34.8669 34.7544 34.2646 34.7056C33.6624 34.6567 33.0684 34.5021 32.4824 34.2417C31.8965 34.0138 31.3675 33.7046 30.8955 33.314C30.4235 32.9233 30.0247 32.4676 29.6992 31.9468ZM37.4629 30.2378C37.6257 29.9774 37.7559 29.6925 37.8535 29.3833C37.9512 29.0741 38 28.7729 38 28.48C38 28.0568 37.9186 27.658 37.7559 27.2837C37.5931 26.9093 37.3652 26.5757 37.0723 26.2827C36.7793 25.9897 36.4456 25.7619 36.0713 25.5991C35.6969 25.4364 35.2982 25.355 34.875 25.355C34.582 25.355 34.2809 25.4038 33.9717 25.5015C33.6624 25.5991 33.3776 25.7293 33.1172 25.8921C32.8893 26.0548 32.6777 26.2583 32.4824 26.5024C32.2871 26.7466 32.1243 27.0151 31.9941 27.3081C31.8639 27.5685 31.7826 27.8534 31.75 28.1626C31.7174 28.4718 31.7337 28.7729 31.7988 29.0659C31.8639 29.3914 31.9697 29.6925 32.1162 29.9692C32.2627 30.2459 32.4499 30.4819 32.6777 30.6772C32.873 30.9051 33.1091 31.0923 33.3857 31.2388C33.6624 31.3853 33.9635 31.491 34.2891 31.5562C34.582 31.6213 34.8831 31.6375 35.1924 31.605C35.5016 31.5724 35.7865 31.491 36.0469 31.3608C36.3398 31.2306 36.6084 31.0679 36.8525 30.8726C37.0967 30.6772 37.3001 30.4657 37.4629 30.2378Z" fill="url(#paint0_linear_1_991)"/>
<defs>
<linearGradient id="paint0_linear_1_991" x1="0.5" y1="0.35498" x2="51.6526" y2="32.2227" gradientUnits="userSpaceOnUse">
<stop stop-color="#2600FC"/>
<stop offset="1" stop-color="#FF00EA"/>
</linearGradient>
</defs>
</svg>
