<svg width="45" height="45" viewBox="0 0 45 45" fill="none" xmlns="http://www.w3.org/2000/svg">
<path id="Vector" d="M10.2005 4.06583C11.9909 2.86141 13.9277 1.94181 16.0111 1.30704C18.0944 0.672279 20.2103 0.354897 22.3587 0.354897C23.8236 0.354897 25.2559 0.501381 26.6556 0.79435C28.0553 1.05477 29.4144 1.46167 30.7327 2.01505C32.0511 2.56844 33.3125 3.23576 34.5169 4.01701C35.6888 4.83081 36.7956 5.74227 37.8372 6.75138C38.8464 7.79305 39.7578 8.89982 40.5716 10.0717C41.3529 11.2761 42.0202 12.5375 42.5736 13.8559C43.127 15.1742 43.5339 16.5333 43.7943 17.933C44.0872 19.3328 44.2337 20.7651 44.2337 22.2299C44.2337 24.3783 43.9163 26.4942 43.2816 28.5776C42.6468 30.6609 41.7272 32.5977 40.5228 34.3881C39.3509 36.1785 37.9268 37.7572 36.2503 39.1244C34.5739 40.4916 32.7266 41.5984 30.7083 42.4447C28.7227 43.2585 26.6556 43.7712 24.5072 43.9828C22.3587 44.1944 20.2266 44.0886 18.1107 43.6654C15.9622 43.2423 13.9359 42.5261 12.0316 41.517C10.1273 40.5079 8.41016 39.2384 6.88021 37.7084C5.35026 36.1785 4.08073 34.4613 3.07161 32.557C2.0625 30.6528 1.34635 28.6264 0.923177 26.4779C0.5 24.3621 0.394206 22.2299 0.605794 20.0815C0.817383 17.933 1.33008 15.866 2.14388 13.8803C2.99023 11.8621 4.09701 10.0147 5.46419 8.33829C6.83138 6.66187 8.41016 5.23771 10.2005 4.06583ZM11.9583 37.8061C13.4883 38.8477 15.1403 39.6371 16.9144 40.1742C18.6885 40.7113 20.5033 40.9799 22.3587 40.9799C24.8327 40.9799 27.2253 40.5079 29.5365 39.5639C31.8477 38.6199 33.8822 37.269 35.64 35.5111C37.3978 33.7533 38.7487 31.7188 39.6927 29.4076C40.6367 27.0964 41.1087 24.7039 41.1087 22.2299C41.1087 20.3744 40.8402 18.5597 40.3031 16.7856C39.766 15.0115 38.9766 13.3595 37.9349 11.8295C36.9258 10.267 35.7051 8.89982 34.2728 7.72794C32.8405 6.55607 31.2617 5.61206 29.5365 4.89591C27.8112 4.17977 26.029 3.73218 24.1898 3.55314C22.3506 3.3741 20.5195 3.46362 18.6966 3.82169C16.8737 4.17977 15.1484 4.79826 13.5208 5.67716C11.8932 6.55607 10.4121 7.64656 9.07747 8.94865C7.77539 10.2833 6.6849 11.7644 5.80599 13.392C4.92708 15.0196 4.30859 16.7449 3.95052 18.5678C3.59245 20.3907 3.50293 22.2218 3.68197 24.061C3.861 25.9001 4.30859 27.6824 5.02474 29.4076C5.74089 31.1329 6.6849 32.7117 7.85677 34.144C9.02865 35.5763 10.3958 36.797 11.9583 37.8061ZM11.4212 22.8647L19.2337 30.6772L33.2962 16.6147L31.099 14.4174L19.2337 26.2826L13.6185 20.6674L11.4212 22.8647Z" fill="url(#paint0_linear_1_973)"/>
<defs>
<linearGradient id="paint0_linear_1_973" x1="0.5" y1="0.354896" x2="51.6335" y2="32.2108" gradientUnits="userSpaceOnUse">
<stop stop-color="#2600FC"/>
<stop offset="1" stop-color="#FF00EA"/>
</linearGradient>
</defs>
</svg>
