<svg width="34" height="34" viewBox="0 0 34 34" fill="none" xmlns="http://www.w3.org/2000/svg">
<path id="Vector" d="M23.6473 17.2372L33.4711 27.0611H29.995C29.4093 27.0611 28.8237 26.8154 28.408 26.3998L19.2832 17.2372L28.4459 8.05576C28.8615 7.64011 29.4282 7.39453 30.0327 7.41341H33.4711L23.6473 17.2372ZM5.64327 8.05576C5.22765 7.64011 4.66089 7.39453 4.05635 7.41341H0.599121L10.4229 17.2372L0.599121 27.0611H4.07524C4.66089 27.0611 5.24654 26.8154 5.66216 26.3998L14.8059 17.2184L5.64327 8.05576ZM17.0351 19.4854L7.85365 28.648C7.438 29.0636 7.21131 29.6303 7.21131 30.2349V33.6921L17.0351 23.8683L26.859 33.6921V30.216C26.859 29.6303 26.6322 29.0447 26.2166 28.6291L17.0351 19.4854ZM17.0351 14.9891L26.2166 5.8265C26.6322 5.41088 26.859 4.84411 26.859 4.23958V0.782349L17.0351 10.6061L7.21131 0.782349V4.23958C7.21131 4.82523 7.438 5.41088 7.85365 5.8265L17.0351 14.9891Z" fill="url(#paint0_linear_1_898)"/>
<defs>
<linearGradient id="paint0_linear_1_898" x1="0.58816" y1="17.2337" x2="21.3728" y2="17.2337" gradientUnits="userSpaceOnUse">
<stop stop-color="#00BFFF"/>
<stop offset="1" stop-color="#6619FF"/>
</linearGradient>
</defs>
</svg>
