<svg width="82" height="25" viewBox="0 0 82 25" fill="none" xmlns="http://www.w3.org/2000/svg">
<path id="Vector" fill-rule="evenodd" clip-rule="evenodd" d="M61.9445 0.552601V20.7481C61.9258 21.0692 62.0578 21.3904 62.2846 21.636C62.5114 21.8816 62.8329 22.0138 63.1537 22.0138H63.5125C63.8526 22.0138 64.1741 21.8816 64.4009 21.636C64.627 21.3904 64.7597 21.0692 64.7597 20.7481V0.552601H67.1021V21.277C67.1021 22.8451 65.8555 24.1109 64.2875 24.1486H62.4927C61.7177 24.1486 60.9814 23.8652 60.4331 23.3174C59.8856 22.7695 59.5834 22.0517 59.5834 21.277V0.552601H61.9445ZM78.6071 0.325895C80.1751 0.363678 81.441 1.83726 81.441 3.42418V5.29446C81.441 5.55898 81.2709 5.78568 81.0068 5.86124L79.0606 6.40908V3.72644C79.0606 3.04634 78.4937 2.47956 77.8141 2.47956C77.1338 2.47956 76.5669 3.02747 76.5669 3.72644V5.95568C76.5669 7.33482 77.5873 9.09179 77.5873 9.09179L80.3832 14.4759C81.517 16.6107 81.4223 18.1788 81.4223 18.1788V21.1637C81.4223 21.9383 81.1202 22.6939 80.5719 23.2607C80.0244 23.8275 79.2687 24.1298 78.475 24.1486H77.0017C75.4143 24.0542 74.1678 22.7506 74.1678 21.1637V17.8199C74.1678 17.5554 74.3379 17.3287 74.602 17.2531L76.5482 16.7053V20.7859C76.5482 21.466 77.1151 22.0138 77.8141 22.0138C78.4937 22.0138 79.0606 21.4471 79.0419 20.7481V18.0843C79.0419 16.7241 78.0215 14.9105 78.0215 14.9105L75.2636 9.52624C74.1298 7.39151 74.2245 5.82342 74.2245 5.82342V3.42418C74.2245 1.79947 75.5277 0.325895 77.1718 0.325895H78.6071ZM34.3811 0.325895C35.9684 0.401468 37.215 1.7239 37.215 3.31079V21.2393C37.1963 22.8073 35.9491 24.0919 34.3811 24.1675H32.5863C30.9809 24.1486 29.677 22.8451 29.6583 21.2393V3.29192C29.6583 2.51738 29.9605 1.76168 30.5087 1.19493C31.0563 0.628167 31.812 0.325895 32.6056 0.307007L34.3811 0.325895ZM7.46024 0.552601L6.89346 2.51738C6.81789 2.78183 6.59119 2.9519 6.32675 2.9519H2.56724V10.4709H6.459L5.89222 12.4357C5.81666 12.6812 5.58996 12.8702 5.32544 12.8702H2.56724V21.5416H7.46024L6.9124 23.4874C6.83684 23.7519 6.61014 23.9219 6.34562 23.9219H0.224609V0.552601H7.46024ZM49.2302 0.552601C50.8549 0.571496 52.1395 1.87504 52.1395 3.48087V20.9748C52.1395 22.5806 50.8363 23.9031 49.2302 23.9031H44.6963V0.552601H49.2302ZM18.3609 8.07161L20.5146 0.552601H22.9139L19.57 12.2467L22.9327 23.9408H20.5335L18.3609 16.4029L16.2072 23.9219H13.808L17.1518 12.2467L13.7891 0.552601H16.1883L18.3609 8.07161ZM33.5881 22.0517C33.9275 22.0517 34.249 21.9005 34.4758 21.6549C34.7026 21.4093 34.8346 21.0882 34.8159 20.7481V3.72644C34.8346 3.38636 34.7026 3.06522 34.4758 2.81965C34.249 2.57407 33.9275 2.44181 33.5881 2.42287H33.2286C32.5296 2.46069 31.982 3.02747 31.982 3.72644V20.7481C31.982 21.4471 32.5296 22.0138 33.2286 22.0517H33.5881ZM48.5693 21.5604C49.2302 21.5604 49.8158 21.2204 49.8158 20.3136V4.16097C49.8158 3.29192 49.2302 2.9519 48.5693 2.9519H47.0386V21.5604H48.5693Z" fill="white"/>
</svg>
