<svg width="40" height="48" viewBox="0 0 40 48" fill="none" xmlns="http://www.w3.org/2000/svg">
<path id="Vector" d="M26.5625 5.04248H31.25C31.6732 5.04248 32.0719 5.12386 32.4463 5.28662C32.8206 5.44938 33.1543 5.67725 33.4473 5.97021C33.7402 6.26318 33.9681 6.59684 34.1309 6.97119C34.2936 7.34554 34.375 7.7443 34.375 8.16748V15.98H31.25V8.16748H26.5625V12.855H7.8125V8.16748H3.125V40.98H17.1875V44.105H3.125C2.70182 44.105 2.30306 44.0236 1.92871 43.8608C1.55436 43.6981 1.2207 43.4702 0.927734 43.1772C0.634766 42.8843 0.406901 42.5506 0.244141 42.1763C0.0813802 41.8019 0 41.4032 0 40.98V8.16748C0 7.7443 0.0813802 7.34554 0.244141 6.97119C0.406901 6.59684 0.634766 6.26318 0.927734 5.97021C1.2207 5.67725 1.55436 5.44938 1.92871 5.28662C2.30306 5.12386 2.70182 5.04248 3.125 5.04248H7.8125V3.47998C7.8125 3.0568 7.89388 2.65804 8.05664 2.28369C8.2194 1.90934 8.44727 1.57568 8.74023 1.28271C9.0332 0.989746 9.36686 0.761883 9.74121 0.599121C10.1156 0.436359 10.5143 0.35498 10.9375 0.35498H23.4375C23.8607 0.35498 24.2594 0.436359 24.6338 0.599121C25.0081 0.761883 25.3418 0.989746 25.6348 1.28271C25.9277 1.57568 26.1556 1.90934 26.3184 2.28369C26.4811 2.65804 26.5625 3.0568 26.5625 3.47998V5.04248ZM10.9375 9.72998H23.4375V3.47998H10.9375V9.72998ZM37.9395 23.9878C38.2975 24.6714 38.5742 25.3957 38.7695 26.1606C38.9648 26.9256 39.0625 27.6987 39.0625 28.48C39.0625 29.131 38.9974 29.7821 38.8672 30.4331C38.737 31.0841 38.5254 31.7026 38.2324 32.2886C37.972 32.9071 37.6465 33.4767 37.2559 33.9976C36.8652 34.5184 36.4258 35.0067 35.9375 35.4624V47.23L29.6875 44.2515L23.4375 47.23V35.4624C22.8516 34.9416 22.3389 34.3556 21.8994 33.7046C21.46 33.0535 21.11 32.3537 20.8496 31.605C20.5892 30.8888 20.4264 30.1401 20.3613 29.3589C20.2962 28.5776 20.3125 27.7964 20.4102 27.0151C20.5404 26.2339 20.7601 25.4852 21.0693 24.769C21.3786 24.0529 21.7773 23.3856 22.2656 22.7671C22.7214 22.1486 23.2585 21.5952 23.877 21.1069C24.4954 20.6187 25.1628 20.2118 25.8789 19.8862C26.5951 19.5607 27.3356 19.3328 28.1006 19.2026C28.8656 19.0724 29.6387 19.0399 30.4199 19.105C31.2012 19.1701 31.9661 19.3328 32.7148 19.5933C33.4635 19.8537 34.1634 20.1955 34.8145 20.6187C35.4655 21.0418 36.0514 21.5382 36.5723 22.1079C37.0931 22.6776 37.5488 23.3042 37.9395 23.9878ZM29.6875 40.8335L32.8125 42.2983V37.3179C31.8034 37.6759 30.7617 37.855 29.6875 37.855C28.6133 37.855 27.5716 37.6759 26.5625 37.3179V42.2983L29.6875 40.8335ZM26.2207 33.6558C26.7415 34.0138 27.2949 34.2824 27.8809 34.4614C28.4668 34.6405 29.069 34.73 29.6875 34.73C30.5013 34.73 31.2907 34.5672 32.0557 34.2417C32.8206 33.9162 33.4961 33.4604 34.082 32.8745C34.668 32.2886 35.1237 31.6131 35.4492 30.8481C35.7747 30.0832 35.9375 29.2938 35.9375 28.48C35.9375 27.8615 35.848 27.2593 35.6689 26.6733C35.4899 26.0874 35.2214 25.534 34.8633 25.0132C34.5378 24.4923 34.139 24.0366 33.667 23.646C33.195 23.2554 32.666 22.9461 32.0801 22.7183C31.4941 22.4578 30.9001 22.3032 30.2979 22.2544C29.6956 22.2056 29.0853 22.23 28.4668 22.3276C27.8483 22.4578 27.2705 22.6694 26.7334 22.9624C26.1963 23.2554 25.6999 23.6297 25.2441 24.0854C24.821 24.5086 24.4629 24.9888 24.1699 25.5259C23.877 26.063 23.6654 26.6408 23.5352 27.2593C23.4375 27.8778 23.4131 28.4881 23.4619 29.0903C23.5107 29.6925 23.6654 30.2866 23.9258 30.8726C24.1536 31.4585 24.4629 31.9875 24.8535 32.4595C25.2441 32.9315 25.6999 33.3302 26.2207 33.6558Z" fill="url(#paint0_linear_1_982)"/>
<defs>
<linearGradient id="paint0_linear_1_982" x1="3.61844e-07" y1="0.35498" x2="49.9384" y2="26.2811" gradientUnits="userSpaceOnUse">
<stop stop-color="#2600FC"/>
<stop offset="1" stop-color="#FF00EA"/>
</linearGradient>
</defs>
</svg>
